<?xml version="1.0" standalone="no"?>
<!DOCTYPE svg PUBLIC "-//W3C//DTD SVG 20010904//EN"
 "http://www.w3.org/TR/2001/REC-SVG-20010904/DTD/svg10.dtd">
<svg version="1.0" xmlns="http://www.w3.org/2000/svg"
 width="200.000000pt" height="200.000000pt" viewBox="0 0 200.000000 200.000000"
 preserveAspectRatio="xMidYMid meet">
<metadata>
Created by potrace 1.14, written by Peter Selinger 2001-2017
</metadata>
<g transform="translate(0.000000,200.000000) scale(0.100000,-0.100000)"
fill="#000000" stroke="none">
<path d="M764 1975 c-352 -90 -615 -357 -716 -723 -31 -112 -31 -382 0 -495
97 -352 343 -608 687 -713 84 -26 102 -28 265 -28 163 0 181 2 264 28 172 52
298 127 421 251 132 131 216 277 267 463 31 112 31 382 0 494 -83 303 -280
540 -550 665 -129 60 -243 83 -406 83 -115 -1 -158 -5 -232 -25z m-94 -485 c0
-5 -4 -10 -10 -10 -15 0 -12 -40 3 -41 10 0 10 -2 0 -6 -15 -6 -17 -43 -3 -43
6 0 10 -4 10 -10 0 -5 -9 -10 -20 -10 -18 0 -20 7 -20 65 0 58 2 65 20 65 11
0 20 -4 20 -10z m408 -18 c2 -13 -4 -34 -12 -47 -20 -30 -20 -35 -1 -35 8 0
15 -4 15 -10 0 -5 -11 -10 -25 -10 -31 0 -32 17 -4 64 22 38 16 73 -8 41 -10
-15 -13 -16 -13 -4 0 37 43 37 48 1z m110 -35 c3 -61 -13 -82 -43 -57 -31 26
-11 125 23 118 13 -2 18 -16 20 -61z m102 48 c10 -12 8 -22 -9 -55 -17 -33
-18 -40 -6 -40 8 0 15 -4 15 -10 0 -5 -11 -10 -25 -10 -30 0 -31 15 -5 55 27
41 26 58 -2 49 -20 -6 -21 -5 -9 10 17 20 25 20 41 1z m80 -52 c0 -78 -16 -75
-22 5 -2 44 1 55 20 61 1 1 2 -29 2 -66z m-527 0 c-3 -19 0 -39 7 -48 10 -12
10 -15 -3 -15 -11 0 -16 13 -19 48 -5 54 0 81 12 61 5 -7 6 -27 3 -46z m-74
20 c0 -11 -3 -13 -6 -5 -7 17 -23 15 -23 -3 0 -9 7 -18 15 -21 23 -9 19 -54
-4 -54 -10 0 -21 7 -25 15 -3 8 -1 15 4 15 6 0 10 -4 10 -10 0 -5 5 -10 10
-10 16 0 12 27 -5 34 -8 3 -15 17 -15 31 0 18 5 25 20 25 13 0 20 -6 19 -17z
m151 -67 c0 -3 -4 -8 -10 -11 -5 -3 -10 -1 -10 4 0 6 5 11 10 11 6 0 10 -2 10
-4z m-591 -253 c35 -30 37 -74 6 -112 l-28 -32 19 -35 c11 -20 29 -47 42 -60
12 -14 22 -27 22 -30 0 -3 -21 -4 -47 -2 -47 3 -48 4 -75 61 -15 31 -32 57
-38 57 -5 0 -10 -22 -10 -50 0 -29 5 -50 11 -50 5 0 7 -4 4 -10 -3 -5 -26 -10
-50 -10 -24 0 -47 5 -50 10 -3 6 -1 10 4 10 16 0 15 242 -1 258 -9 9 8 12 79
12 72 0 95 -4 112 -17z m478 -49 c-3 -20 0 -24 19 -24 13 0 24 -4 24 -10 0 -5
-11 -10 -25 -10 -23 0 -25 -3 -25 -51 0 -58 14 -91 35 -83 24 10 17 -9 -11
-30 -21 -15 -30 -16 -50 -7 -22 10 -24 16 -24 91 0 64 -3 80 -15 80 -22 0 -19
6 22 44 41 37 57 37 50 0z m1013 6 c0 -23 5 -30 19 -30 11 0 23 -4 26 -10 4
-6 -5 -10 -19 -10 -25 0 -26 -2 -26 -58 0 -61 12 -84 39 -75 9 2 3 -7 -12 -21
-15 -14 -34 -26 -42 -26 -28 0 -45 42 -45 111 0 45 -4 69 -12 72 -8 2 0 17 22
39 44 44 50 45 50 8z m-1280 -50 c11 -11 20 -33 20 -50 0 -29 -1 -30 -50 -30
-34 0 -50 -4 -50 -13 0 -21 22 -37 50 -37 14 0 31 5 38 12 9 9 12 8 12 -4 0
-25 -49 -58 -86 -58 -67 0 -98 96 -54 168 17 27 25 32 60 32 27 0 47 -7 60
-20z m159 6 c9 -10 8 -16 -4 -26 -13 -10 -19 -10 -34 4 -13 12 -21 14 -26 7
-3 -6 12 -28 34 -48 46 -41 52 -72 21 -103 -25 -25 -71 -26 -100 -2 -21 17
-21 19 -5 32 15 13 19 12 35 -8 22 -27 30 -28 30 -4 0 10 -16 32 -35 49 -40
35 -44 64 -15 93 23 23 82 27 99 6z m285 -2 c11 -11 16 -35 16 -80 0 -44 4
-64 13 -64 16 -1 -32 -40 -49 -40 -8 0 -14 4 -14 9 0 5 -13 5 -29 -2 -41 -15
-61 -4 -61 37 0 31 3 34 37 41 49 9 52 11 46 36 -5 18 -11 21 -44 16 -37 -5
-38 -4 -28 20 5 14 12 30 15 34 9 15 82 10 98 -7z m114 -52 c2 -46 7 -65 18
-69 9 -3 20 0 25 8 12 19 11 109 -1 109 -5 0 -10 5 -10 10 0 6 16 10 35 10
l35 0 0 -73 c0 -40 5 -78 11 -84 8 -8 4 -16 -14 -28 -29 -18 -47 -13 -47 13
-1 14 -4 13 -20 -7 -15 -17 -26 -22 -45 -17 -34 9 -42 29 -47 119 l-3 78 30
-3 c30 -3 30 -4 33 -66z m199 48 l6 -21 14 21 c8 11 25 20 39 20 22 0 25 -4
22 -27 -3 -25 -7 -28 -35 -25 l-33 2 0 -65 c0 -52 3 -65 16 -65 8 0 12 -4 9
-10 -3 -5 -26 -10 -50 -10 -24 0 -47 5 -50 10 -3 6 -1 10 4 10 16 0 14 147 -1
153 -8 3 -3 9 12 15 36 15 41 14 47 -8z m205 3 c10 -12 17 -44 20 -90 4 -83 4
-83 -79 -89 -45 -3 -54 -1 -63 16 -18 34 -4 58 41 65 34 6 40 10 37 28 -2 18
-9 22 -41 21 -34 -1 -37 1 -31 20 4 11 11 27 16 34 16 18 82 15 100 -5z m108
-5 l1 -23 18 23 c23 26 48 28 73 5 14 -13 18 -31 18 -90 0 -50 4 -73 12 -73 9
0 9 -3 1 -11 -6 -6 -25 -9 -44 -7 l-33 3 3 66 c2 53 -1 68 -14 73 -22 8 -28
-14 -23 -84 l4 -60 -35 0 -36 0 4 81 c2 60 0 84 -10 90 -10 6 -7 10 11 18 39
15 50 13 50 -11z m-676 -437 c36 -36 47 -55 43 -70 -3 -11 0 -25 7 -30 9 -8
33 10 86 64 80 80 120 97 120 51 0 -27 -65 -119 -109 -153 l-29 -23 76 -74
c66 -64 74 -76 63 -90 -7 -9 -19 -16 -26 -16 -6 0 -43 33 -81 72 -64 67 -104
92 -104 64 0 -6 -29 -40 -64 -75 -65 -64 -97 -76 -104 -37 -4 21 113 146 136
146 8 0 12 9 10 23 -2 17 -10 22 -30 22 -19 0 -42 15 -77 49 l-50 49 37 38
c20 21 39 38 42 39 3 0 28 -22 54 -49z"/>
<path d="M1150 1436 c0 -25 5 -48 10 -51 6 -4 10 13 10 44 0 28 -4 51 -10 51
-5 0 -10 -20 -10 -44z"/>
<path d="M220 1065 c0 -69 8 -78 45 -51 24 17 24 69 0 96 -34 37 -45 26 -45
-45z"/>
<path d="M466 1025 c-13 -34 -7 -53 15 -48 15 4 19 12 17 31 -4 30 -23 40 -32
17z"/>
<path d="M914 914 c3 -9 6 -18 6 -20 0 -2 5 -4 10 -4 6 0 10 9 10 20 0 12 -7
20 -16 20 -11 0 -14 -5 -10 -16z"/>
<path d="M1432 913 c5 -25 28 -28 28 -4 0 12 -6 21 -16 21 -9 0 -14 -7 -12
-17z"/>
<path d="M870 635 c0 -5 17 -26 37 -47 48 -49 34 -63 -15 -15 -53 52 -65 46
-14 -6 52 -53 43 -72 -10 -20 -21 20 -41 33 -45 29 -4 -4 14 -28 40 -53 40
-37 50 -43 63 -32 13 10 23 4 64 -36 28 -27 50 -54 50 -60 0 -15 113 -125 128
-125 28 0 8 39 -48 95 -33 33 -60 55 -60 50 0 -5 -23 13 -50 40 -38 37 -50 55
-46 71 4 15 -8 33 -44 69 -28 27 -50 45 -50 40z"/>
<path d="M1082 557 c-72 -73 -73 -73 -52 -92 20 -18 21 -18 46 6 46 42 104
120 104 140 0 34 -24 21 -98 -54z"/>
<path d="M886 360 c-57 -55 -69 -71 -58 -82 10 -10 23 -1 68 42 30 30 65 67
75 83 18 24 19 27 3 27 -9 0 -48 -31 -88 -70z"/>
</g>
</svg>
